<mxfile host="Electron" agent="Mozilla/5.0 (Windows NT 10.0; Win64; x64) AppleWebKit/537.36 (KHTML, like Gecko) draw.io/26.2.2 Chrome/134.0.6998.178 Electron/35.1.2 Safari/537.36" version="26.2.2">
  <diagram name="Σελίδα-1" id="8BYGorF-1CgQnMmw-XZW">
    <mxGraphModel dx="1444" dy="1060" grid="0" gridSize="10" guides="1" tooltips="1" connect="1" arrows="1" fold="1" page="0" pageScale="1" pageWidth="827" pageHeight="1169" math="0" shadow="0">
      <root>
        <mxCell id="0" />
        <mxCell id="1" parent="0" />
        <mxCell id="7Z3zE21MGDhj2124vMGN-4" style="rounded=0;orthogonalLoop=1;jettySize=auto;html=1;exitX=0.5;exitY=0.5;exitDx=0;exitDy=0;exitPerimeter=0;" edge="1" parent="1" source="dpwUTuutwJOYTm1G-602-5" target="7Z3zE21MGDhj2124vMGN-3">
          <mxGeometry relative="1" as="geometry">
            <mxPoint x="-302.79998779296875" y="-127.20001220703125" as="targetPoint" />
          </mxGeometry>
        </mxCell>
        <mxCell id="7Z3zE21MGDhj2124vMGN-7" value="Βλέπει" style="edgeLabel;html=1;align=center;verticalAlign=middle;resizable=0;points=[];" vertex="1" connectable="0" parent="7Z3zE21MGDhj2124vMGN-4">
          <mxGeometry x="0.1863" y="3" relative="1" as="geometry">
            <mxPoint as="offset" />
          </mxGeometry>
        </mxCell>
        <mxCell id="7Z3zE21MGDhj2124vMGN-5" style="edgeStyle=none;rounded=0;orthogonalLoop=1;jettySize=auto;html=1;exitX=0.5;exitY=0.5;exitDx=0;exitDy=0;exitPerimeter=0;" edge="1" parent="1" source="dpwUTuutwJOYTm1G-602-5" target="7Z3zE21MGDhj2124vMGN-2">
          <mxGeometry relative="1" as="geometry" />
        </mxCell>
        <mxCell id="7Z3zE21MGDhj2124vMGN-8" value="επιλέγει" style="edgeLabel;html=1;align=center;verticalAlign=middle;resizable=0;points=[];" vertex="1" connectable="0" parent="7Z3zE21MGDhj2124vMGN-5">
          <mxGeometry x="-0.0031" y="3" relative="1" as="geometry">
            <mxPoint as="offset" />
          </mxGeometry>
        </mxCell>
        <mxCell id="7Z3zE21MGDhj2124vMGN-6" style="edgeStyle=none;rounded=0;orthogonalLoop=1;jettySize=auto;html=1;exitX=0.5;exitY=0.5;exitDx=0;exitDy=0;exitPerimeter=0;" edge="1" parent="1" source="dpwUTuutwJOYTm1G-602-5" target="7Z3zE21MGDhj2124vMGN-1">
          <mxGeometry relative="1" as="geometry" />
        </mxCell>
        <mxCell id="7Z3zE21MGDhj2124vMGN-12" value="συμπλιρώνει" style="edgeLabel;html=1;align=center;verticalAlign=middle;resizable=0;points=[];" vertex="1" connectable="0" parent="7Z3zE21MGDhj2124vMGN-6">
          <mxGeometry x="0.1786" y="4" relative="1" as="geometry">
            <mxPoint as="offset" />
          </mxGeometry>
        </mxCell>
        <mxCell id="dpwUTuutwJOYTm1G-602-5" value="User" style="shape=umlActor;verticalLabelPosition=bottom;verticalAlign=top;html=1;outlineConnect=0;" parent="1" vertex="1">
          <mxGeometry x="-371" y="-129" width="30" height="60" as="geometry" />
        </mxCell>
        <mxCell id="dpwUTuutwJOYTm1G-602-13" value="DataBase" style="ellipse;shape=umlEntity;whiteSpace=wrap;html=1;" parent="1" vertex="1">
          <mxGeometry x="76" y="-282" width="80" height="80" as="geometry" />
        </mxCell>
        <mxCell id="7Z3zE21MGDhj2124vMGN-1" value="&amp;nbsp;Δημιουργία αγγελίας" style="shape=umlBoundary;whiteSpace=wrap;html=1;" vertex="1" parent="1">
          <mxGeometry x="-240" y="-15" width="100" height="80" as="geometry" />
        </mxCell>
        <mxCell id="7Z3zE21MGDhj2124vMGN-10" value="" style="edgeStyle=none;rounded=0;orthogonalLoop=1;jettySize=auto;html=1;" edge="1" parent="1" source="7Z3zE21MGDhj2124vMGN-2" target="7Z3zE21MGDhj2124vMGN-9">
          <mxGeometry relative="1" as="geometry" />
        </mxCell>
        <mxCell id="7Z3zE21MGDhj2124vMGN-2" value="House Icon" style="shape=umlBoundary;whiteSpace=wrap;html=1;" vertex="1" parent="1">
          <mxGeometry x="-228" y="-139" width="100" height="80" as="geometry" />
        </mxCell>
        <mxCell id="7Z3zE21MGDhj2124vMGN-3" value="Menu Bar" style="shape=umlBoundary;whiteSpace=wrap;html=1;" vertex="1" parent="1">
          <mxGeometry x="-240" y="-282" width="100" height="80" as="geometry" />
        </mxCell>
        <mxCell id="7Z3zE21MGDhj2124vMGN-11" value="" style="edgeStyle=none;rounded=0;orthogonalLoop=1;jettySize=auto;html=1;" edge="1" parent="1" source="7Z3zE21MGDhj2124vMGN-9" target="7Z3zE21MGDhj2124vMGN-1">
          <mxGeometry relative="1" as="geometry" />
        </mxCell>
        <mxCell id="7Z3zE21MGDhj2124vMGN-9" value="Φόρτωση&lt;div&gt;σελίδας&lt;/div&gt;" style="ellipse;shape=umlControl;whiteSpace=wrap;html=1;" vertex="1" parent="1">
          <mxGeometry x="-59" y="-144" width="70" height="80" as="geometry" />
        </mxCell>
      </root>
    </mxGraphModel>
  </diagram>
</mxfile>
